# This file uses centimeters as units for non-parametric coordinates.

mtllib Roca04.mtl
g default
v 2.727282 2.620549 2.870508
v 2.050364 3.177084 0.658041
v 1.025194 3.111718 2.554383
v 3.942643 2.739094 1.827605
v 4.234395 2.399709 0.402858
v 0.750071 2.622765 0.880364
v 1.025194 3.111718 2.554383
v 0.343102 1.059910 1.488225
v 0.942107 1.282589 2.365310
v 0.327957 1.383038 1.779602
v 1.070614 1.059910 2.052520
v 2.771228 1.387103 2.576916
v 2.893842 1.059910 2.591690
v 3.994718 1.591691 1.519249
v 2.771228 1.387103 2.576916
v 4.053432 1.059910 1.386294
v 4.422364 1.059910 0.362983
v 4.284243 1.742737 0.345251
v 3.245776 1.059910 -1.016352
v 1.997550 2.184778 -0.199463
v 3.394606 1.991267 -0.674746
v 0.887447 2.431477 2.548851
v 0.347533 2.468037 1.897772
v 2.778618 2.327334 2.774484
v 2.727282 2.620549 2.870508
v 4.063769 2.193280 1.737504
v 2.778618 2.327334 2.774484
v 4.287936 2.166317 0.377011
v 1.905603 1.059910 -0.655175
v 2.078430 1.629363 -0.005953
v 3.361369 1.780398 -0.505977
v 0.638540 1.059910 0.114067
v 0.806940 1.776709 0.787667
v 1.014119 1.559562 2.258949
v 2.906760 1.701003 2.173272
v 2.906760 1.701003 2.173272
v 3.814493 1.858320 1.459416
v 4.126184 1.933291 0.334174
v 3.361369 1.780398 -0.505977
v 2.778618 2.327334 2.774484
v 2.893842 1.059910 2.591690
v 1.025194 3.111718 2.554383
v 3.245776 1.059910 -1.016352
vt 0.393077 0.401770
vt 0.474818 0.433189
vt 0.406101 0.462666
vt 0.432455 0.367629
vt 0.476290 0.353929
vt 0.509059 0.467531
vt 0.474470 0.515982
vt 0.559554 0.504329
vt 0.541042 0.537246
vt 0.545073 0.508636
vt 0.555100 0.536408
vt 0.547481 0.598953
vt 0.392101 0.289857
vt 0.441618 0.318677
vt 0.388657 0.301459
vt 0.448720 0.300868
vt 0.486167 0.305723
vt 0.481657 0.329333
vt 0.544569 0.331640
vt 0.516651 0.412410
vt 0.520121 0.361384
vt 0.496450 0.530880
vt 0.509028 0.503896
vt 0.499207 0.597653
vt 0.488495 0.596347
vt 0.430676 0.349519
vt 0.388366 0.391727
vt 0.476672 0.346265
vt 0.567136 0.404965
vt 0.537321 0.412387
vt 0.528982 0.364319
vt 0.570745 0.455753
vt 0.538097 0.466016
vt 0.530445 0.536647
vt 0.529230 0.601259
vt 0.398387 0.316826
vt 0.438165 0.330407
vt 0.480806 0.338370
vt 0.520050 0.351350
vt 0.376027 0.336671
vt 0.559130 0.602412
vt 0.472973 0.536175
vt 0.559059 0.357517
vn 0.247642 0.416052 0.874971
vn -0.077990 0.934362 -0.347686
vn -0.368306 0.731811 0.573414
vn 0.669713 0.631644 0.390524
vn 0.747551 0.597823 -0.289439
vn -0.077990 0.934362 -0.347686
vn -0.713266 0.491092 -0.500080
vn -0.368306 0.731811 0.573414
vn -0.077990 0.934362 -0.347686
vn -0.987577 -0.147459 0.054282
vn -0.390772 -0.255663 0.884270
vn -0.934929 -0.125042 0.332072
vn -0.206574 -0.810903 0.547507
vn 0.129390 0.376929 0.917160
vn -0.390772 -0.255663 0.884270
vn 0.299282 0.105072 0.948362
vn 0.783657 0.319890 0.532496
vn 0.129390 0.376929 0.917160
vn 0.879730 0.035301 0.474162
vn 0.972304 0.148678 -0.180332
vn 0.783657 0.319890 0.532496
vn 0.972304 0.148678 -0.180332
vn 0.903995 0.377111 -0.201447
vn 0.783657 0.319890 0.532496
vn 0.972304 0.148678 -0.180332
vn 0.163933 0.534419 -0.829170
vn 0.903995 0.377111 -0.201447
vn -0.413450 0.170365 -0.894447
vn -0.077990 0.934362 -0.347686
vn 0.277970 0.073985 -0.957736
vn -0.713266 0.491092 -0.500080
vn -0.077990 0.934362 -0.347686
vn -0.413450 0.170365 -0.894447
vn -0.479034 -0.155214 0.863965
vn -0.368306 0.731811 0.573414
vn -0.943546 0.282257 0.173357
vn 0.259208 -0.425214 0.867182
vn 0.247642 0.416052 0.874971
vn -0.479034 -0.155214 0.863965
vn 0.669713 0.631644 0.390524
vn 0.247642 0.416052 0.874971
vn 0.818656 -0.325768 0.472946
vn 0.247642 0.416052 0.874971
vn 0.259208 -0.425214 0.867182
vn 0.818656 -0.325768 0.472946
vn 0.747551 0.597823 -0.289439
vn 0.669713 0.631644 0.390524
vn 0.955159 -0.176100 -0.238033
vn 0.669713 0.631644 0.390524
vn 0.818656 -0.325768 0.472946
vn 0.955159 -0.176100 -0.238033
vn -0.309394 0.724116 -0.616385
vn -0.457223 0.271285 -0.846966
vn 0.336816 -0.021150 -0.941333
vn -0.557607 0.639334 -0.529459
vn -0.779993 0.260495 -0.568993
vn -0.457223 0.271285 -0.846966
vn -0.390772 -0.255663 0.884270
vn -0.353685 0.100874 0.929909
vn -0.934929 -0.125042 0.332072
vn 0.129390 0.376929 0.917160
vn 0.408157 0.092452 0.908218
vn -0.353685 0.100874 0.929909
vn 0.408157 0.092452 0.908218
vn 0.129390 0.376929 0.917160
vn 0.824216 -0.073519 0.561483
vn 0.129390 0.376929 0.917160
vn 0.783657 0.319890 0.532496
vn 0.824216 -0.073519 0.561483
vn 0.824216 -0.073519 0.561483
vn 0.783657 0.319890 0.532496
vn 0.944396 -0.053782 -0.324382
vn 0.783657 0.319890 0.532496
vn 0.903995 0.377111 -0.201447
vn 0.944396 -0.053782 -0.324382
vn 0.903995 0.377111 -0.201447
vn 0.163933 0.534419 -0.829170
vn 0.944396 -0.053782 -0.324382
vn 0.163933 0.534419 -0.829170
vn 0.336816 -0.021150 -0.941333
vn 0.944396 -0.053782 -0.324382
vn 0.277970 0.073985 -0.957736
vn 0.336816 -0.021150 -0.941333
vn -0.457223 0.271285 -0.846966
vn -0.413450 0.170365 -0.894447
vn -0.457223 0.271285 -0.846966
vn -0.779993 0.260495 -0.568993
vn -0.713266 0.491092 -0.500080
vn -0.779993 0.260495 -0.568993
vn -0.934929 -0.125042 0.332072
vn -0.943546 0.282257 0.173357
vn -0.934929 -0.125042 0.332072
vn -0.353685 0.100874 0.929909
vn -0.479034 -0.155214 0.863965
vn -0.353685 0.100874 0.929909
vn 0.408157 0.092452 0.908218
vn 0.259208 -0.425214 0.867182
vn 0.408157 0.092452 0.908218
vn 0.824216 -0.073519 0.561483
vn 0.955159 -0.176100 -0.238033
vn 0.818656 -0.325768 0.472946
vn 0.944396 -0.053782 -0.324382
vn 0.818656 -0.325768 0.472946
vn 0.824216 -0.073519 0.561483
vn 0.944396 -0.053782 -0.324382
vn 0.277970 0.073985 -0.957736
vn 0.955159 -0.176100 -0.238033
vn 0.336816 -0.021150 -0.941333
vn 0.955159 -0.176100 -0.238033
vn 0.944396 -0.053782 -0.324382
vn 0.336816 -0.021150 -0.941333
vn 0.247642 0.416052 0.874971
vn 0.669713 0.631644 0.390524
vn -0.077990 0.934362 -0.347686
vn 0.747551 0.597823 -0.289439
vn 0.277970 0.073985 -0.957736
vn -0.077990 0.934362 -0.347686
vn -0.206574 -0.810903 0.547507
vn 0.299282 0.105072 0.948362
vn 0.129390 0.376929 0.917160
vn -0.368306 0.731811 0.573414
vn -0.713266 0.491092 -0.500080
vn -0.943546 0.282257 0.173357
vn 0.277970 0.073985 -0.957736
vn 0.747551 0.597823 -0.289439
vn 0.955159 -0.176100 -0.238033
vn -0.457223 0.271285 -0.846966
vn -0.309394 0.724116 -0.616385
vn -0.557607 0.639334 -0.529459
vn -0.779993 0.260495 -0.568993
vn -0.557607 0.639334 -0.529459
vn -0.934929 -0.125042 0.332072
vn -0.353685 0.100874 0.929909
vn -0.390772 -0.255663 0.884270
vn 0.129390 0.376929 0.917160
vn -0.457223 0.271285 -0.846966
vn -0.413450 0.170365 -0.894447
vn 0.277970 0.073985 -0.957736
vn -0.934929 -0.125042 0.332072
vn -0.943546 0.282257 0.173357
vn -0.713266 0.491092 -0.500080
vn 0.408157 0.092452 0.908218
vn 0.259208 -0.425214 0.867182
vn -0.479034 -0.155214 0.863965
vn -0.557607 0.639334 -0.529459
vn -0.987577 -0.147459 0.054282
vn -0.934929 -0.125042 0.332072
vn -0.987577 -0.147459 0.054282
vn -0.206574 -0.810903 0.547507
vn -0.390772 -0.255663 0.884270
vn 0.299282 0.105072 0.948362
vn 0.879730 0.035301 0.474162
vn 0.783657 0.319890 0.532496
vn 0.247642 0.416052 0.874971
vn -0.368306 0.731811 0.573414
vn -0.479034 -0.155214 0.863965
vn -0.353685 0.100874 0.929909
vn -0.479034 -0.155214 0.863965
vn -0.943546 0.282257 0.173357
vn 0.824216 -0.073519 0.561483
vn 0.818656 -0.325768 0.472946
vn 0.259208 -0.425214 0.867182
vn 0.336816 -0.021150 -0.941333
vn 0.163933 0.534419 -0.829170
vn -0.309394 0.724116 -0.616385
vn -0.779993 0.260495 -0.568993
vn -0.713266 0.491092 -0.500080
vn -0.413450 0.170365 -0.894447
s off
g polySurface463 tree_FBXASC032CopyFBXASC032Copy_ncl1_1
usemtl rock_low_03SG
f 1/1/1 2/2/2 3/3/3
f 4/4/4 5/5/5 2/2/6
f 6/6/7 7/7/8 2/2/9
f 8/8/10 9/9/11 10/10/12
f 11/11/13 12/12/14 9/9/15
f 13/13/16 14/14/17 15/15/18
f 16/16/19 17/17/20 14/14/21
f 17/17/22 18/18/23 14/14/24
f 17/17/25 19/19/26 18/18/27
f 20/20/28 2/2/29 21/21/30
f 6/6/31 2/2/32 20/20/33
f 22/22/34 7/7/35 23/23/36
f 24/24/37 25/25/38 22/22/39
f 4/4/40 1/1/41 26/26/42
f 1/1/43 27/27/44 26/26/45
f 5/5/46 4/4/47 28/28/48
f 4/4/49 26/26/50 28/28/51
f 29/29/52 30/30/53 31/31/54
f 32/32/55 33/33/56 30/30/57
f 9/9/58 34/34/59 10/10/60
f 12/12/61 35/35/62 34/34/63
f 36/36/64 15/15/65 37/37/66
f 15/15/67 14/14/68 37/37/69
f 37/37/70 14/14/71 38/38/72
f 14/14/73 18/18/74 38/38/75
f 18/18/76 19/19/77 38/38/78
f 19/19/79 39/39/80 38/38/81
f 21/21/82 31/31/83 30/30/84
f 20/20/85 30/30/86 33/33/87
f 6/6/88 33/33/89 10/10/90
f 23/23/91 10/10/92 34/34/93
f 22/22/94 34/34/95 35/35/96
f 40/40/97 36/36/98 37/37/99
f 28/28/100 26/26/101 38/38/102
f 26/26/103 37/37/104 38/38/105
f 21/21/106 28/28/107 39/39/108
f 28/28/109 38/38/110 39/39/111
f 1/1/112 4/4/113 2/2/114
f 5/5/115 21/21/116 2/2/117
f 11/11/118 41/41/119 12/12/120
f 7/7/121 6/6/122 23/23/123
f 21/21/124 5/5/125 28/28/126
f 30/30/127 29/29/128 32/32/129
f 33/33/130 32/32/131 10/10/132
f 34/34/133 9/9/134 12/12/135
f 30/30/136 20/20/137 21/21/138
f 10/10/139 23/23/140 6/6/141
f 35/35/142 24/24/143 22/22/144
f 32/32/145 8/8/146 10/10/147
f 8/8/148 11/11/149 9/9/150
f 13/13/151 16/16/152 14/14/153
f 25/25/154 42/42/155 22/22/156
f 34/34/157 22/22/158 23/23/159
f 37/37/160 26/26/161 40/40/162
f 31/31/163 43/43/164 29/29/165
f 33/33/166 6/6/167 20/20/168
