# This file uses centimeters as units for non-parametric coordinates.

mtllib Roca07.mtl
g default
v -3.463873 2.620549 1.652156
v -2.524212 3.177083 -0.462145
v -4.541681 3.111717 0.297398
v -1.862418 2.739093 1.661680
v -0.707918 2.399709 0.777286
v -3.651726 2.622765 -1.146906
v -4.541681 3.111717 0.297398
v -4.357575 1.059909 -0.954820
v -4.480435 1.282588 0.100164
v -4.560069 1.383037 -0.744758
v -4.178310 1.059909 -0.051732
v -3.238182 1.387103 1.459306
v -3.155294 1.059909 1.550861
v -1.620908 1.591690 1.463014
v -3.238182 1.387103 1.459306
v -1.489398 1.059909 1.401131
v -0.539853 1.059910 0.870434
v -0.632508 1.742737 0.766478
v -0.523742 1.059910 -0.942483
v -2.001810 2.184778 -1.144200
v -0.635369 1.991267 -0.586977
v -4.642054 2.431476 0.202897
v -4.622774 2.468036 -0.642702
v -3.362150 2.327334 1.613318
v -3.463873 2.620549 1.652156
v -1.711887 2.193279 1.673077
v -3.362150 2.327334 1.613318
v -0.650545 2.166317 0.792879
v -1.772415 1.059909 -1.548559
v -2.067632 1.629362 -0.945064
v -0.771127 1.780398 -0.481349
v -3.233463 1.059909 -1.798602
v -3.548007 1.776708 -1.179605
v -4.356323 1.559561 0.067080
v -2.871179 1.701002 1.243421
v -2.871179 1.701002 1.243421
v -1.717746 1.858319 1.299664
v -0.744581 1.933290 0.654474
v -0.771127 1.780398 -0.481349
v -3.362150 2.327334 1.613318
v -3.155294 1.059909 1.550861
v -4.541681 3.111717 0.297398
v -0.523742 1.059910 -0.942483
vt 0.393077 0.401770
vt 0.474818 0.433189
vt 0.406101 0.462666
vt 0.432455 0.367629
vt 0.476290 0.353929
vt 0.509059 0.467531
vt 0.474470 0.515982
vt 0.559554 0.504329
vt 0.541042 0.537246
vt 0.545073 0.508636
vt 0.555100 0.536408
vt 0.547481 0.598953
vt 0.392101 0.289857
vt 0.441618 0.318677
vt 0.388657 0.301459
vt 0.448720 0.300868
vt 0.486167 0.305723
vt 0.481657 0.329333
vt 0.544569 0.331640
vt 0.516651 0.412410
vt 0.520121 0.361384
vt 0.496450 0.530880
vt 0.509028 0.503896
vt 0.499207 0.597653
vt 0.488495 0.596347
vt 0.430676 0.349519
vt 0.388366 0.391727
vt 0.476672 0.346265
vt 0.567136 0.404965
vt 0.537321 0.412387
vt 0.528982 0.364319
vt 0.570745 0.455753
vt 0.538097 0.466016
vt 0.530445 0.536647
vt 0.529230 0.601259
vt 0.398387 0.316826
vt 0.438165 0.330407
vt 0.480806 0.338370
vt 0.520050 0.351350
vt 0.376027 0.336671
vt 0.559130 0.602412
vt 0.472973 0.536175
vt 0.559059 0.357517
vn -0.386757 0.416052 0.822995
vn 0.169098 0.934362 -0.313646
vn -0.654070 0.731811 0.191431
vn 0.249569 0.631644 0.733990
vn 0.754198 0.597823 0.271649
vn 0.169098 0.934362 -0.313646
vn -0.210615 0.491092 -0.845263
vn -0.654070 0.731811 0.191431
vn 0.169098 0.934362 -0.313646
vn -0.781225 -0.147460 -0.606583
vn -0.874864 -0.255664 0.411399
vn -0.923625 -0.125042 -0.362327
vn -0.514972 -0.810903 0.277920
vn -0.503703 0.376929 0.777308
vn -0.874864 -0.255664 0.411399
vn -0.395891 0.105072 0.912266
vn 0.242505 0.319890 0.915894
vn -0.503703 0.376929 0.777308
vn 0.353292 0.035301 0.934847
vn 0.852346 0.148678 0.501399
vn 0.242505 0.319890 0.915894
vn 0.852346 0.148678 0.501399
vn 0.814617 0.377111 0.440666
vn 0.242505 0.319890 0.915894
vn 0.852346 0.148678 0.501399
vn 0.667468 0.534419 -0.518539
vn 0.814617 0.377111 0.440666
vn 0.274340 0.170365 -0.946421
vn 0.169098 0.934362 -0.313646
vn 0.837870 0.073985 -0.540833
vn -0.210615 0.491092 -0.845263
vn 0.169098 0.934362 -0.313646
vn 0.274340 0.170365 -0.946421
vn -0.928188 -0.155214 0.338194
vn -0.654070 0.731811 0.191431
vn -0.826059 0.282257 -0.487808
vn -0.372917 -0.425214 0.824698
vn -0.386757 0.416052 0.822995
vn -0.928188 -0.155214 0.338194
vn 0.249569 0.631644 0.733990
vn -0.386757 0.416052 0.822995
vn 0.307977 -0.325768 0.893882
vn -0.386757 0.416052 0.822995
vn -0.372917 -0.425214 0.824698
vn 0.307977 -0.325768 0.893882
vn 0.754198 0.597823 0.271649
vn 0.249569 0.631644 0.733990
vn 0.877237 -0.176099 0.446592
vn 0.249569 0.631644 0.733990
vn 0.307977 -0.325768 0.893882
vn 0.877237 -0.176099 0.446592
vn 0.170576 0.724116 -0.668251
vn 0.210158 0.271285 -0.939275
vn 0.871543 -0.021149 -0.489862
vn -0.073827 0.639334 -0.765377
vn -0.215808 0.260495 -0.941047
vn 0.210158 0.271285 -0.939275
vn -0.874864 -0.255664 0.411399
vn -0.876789 0.100873 0.470176
vn -0.923625 -0.125042 -0.362327
vn -0.503703 0.376929 0.777308
vn -0.287367 0.092452 0.953348
vn -0.876789 0.100873 0.470176
vn -0.287367 0.092452 0.953348
vn -0.503703 0.376929 0.777308
vn 0.254120 -0.073519 0.964374
vn -0.503703 0.376929 0.777308
vn 0.242505 0.319890 0.915894
vn 0.254120 -0.073519 0.964374
vn 0.254120 -0.073519 0.964374
vn 0.242505 0.319890 0.915894
vn 0.925730 -0.053782 0.374340
vn 0.242505 0.319890 0.915894
vn 0.814617 0.377111 0.440666
vn 0.925730 -0.053782 0.374340
vn 0.814617 0.377111 0.440666
vn 0.667468 0.534419 -0.518539
vn 0.925730 -0.053782 0.374340
vn 0.667468 0.534419 -0.518539
vn 0.871543 -0.021149 -0.489862
vn 0.925730 -0.053782 0.374340
vn 0.837870 0.073985 -0.540833
vn 0.871543 -0.021149 -0.489862
vn 0.210158 0.271285 -0.939275
vn 0.274340 0.170365 -0.946421
vn 0.210158 0.271285 -0.939275
vn -0.215808 0.260495 -0.941047
vn -0.210615 0.491092 -0.845263
vn -0.215808 0.260495 -0.941047
vn -0.923625 -0.125042 -0.362327
vn -0.826059 0.282257 -0.487808
vn -0.923625 -0.125042 -0.362327
vn -0.876789 0.100873 0.470176
vn -0.928188 -0.155214 0.338194
vn -0.876789 0.100873 0.470176
vn -0.287367 0.092452 0.953348
vn -0.372917 -0.425214 0.824698
vn -0.287367 0.092452 0.953348
vn 0.254120 -0.073519 0.964374
vn 0.877237 -0.176099 0.446592
vn 0.307977 -0.325768 0.893882
vn 0.925730 -0.053782 0.374340
vn 0.307977 -0.325768 0.893882
vn 0.254120 -0.073519 0.964374
vn 0.925730 -0.053782 0.374340
vn 0.837870 0.073985 -0.540833
vn 0.877237 -0.176099 0.446592
vn 0.871543 -0.021149 -0.489862
vn 0.877237 -0.176099 0.446592
vn 0.925730 -0.053782 0.374340
vn 0.871543 -0.021149 -0.489862
vn -0.386757 0.416052 0.822995
vn 0.249569 0.631644 0.733990
vn 0.169098 0.934362 -0.313646
vn 0.754198 0.597823 0.271649
vn 0.837870 0.073985 -0.540833
vn 0.169098 0.934362 -0.313646
vn -0.514972 -0.810903 0.277920
vn -0.395891 0.105072 0.912266
vn -0.503703 0.376929 0.777308
vn -0.654070 0.731811 0.191431
vn -0.210615 0.491092 -0.845263
vn -0.826059 0.282257 -0.487808
vn 0.837870 0.073985 -0.540833
vn 0.754198 0.597823 0.271649
vn 0.877237 -0.176099 0.446592
vn 0.210158 0.271285 -0.939275
vn 0.170576 0.724116 -0.668251
vn -0.073827 0.639334 -0.765377
vn -0.215808 0.260495 -0.941047
vn -0.073827 0.639334 -0.765377
vn -0.923625 -0.125042 -0.362327
vn -0.876789 0.100873 0.470176
vn -0.874864 -0.255664 0.411399
vn -0.503703 0.376929 0.777308
vn 0.210158 0.271285 -0.939275
vn 0.274340 0.170365 -0.946421
vn 0.837870 0.073985 -0.540833
vn -0.923625 -0.125042 -0.362327
vn -0.826059 0.282257 -0.487808
vn -0.210615 0.491092 -0.845263
vn -0.287367 0.092452 0.953348
vn -0.372917 -0.425214 0.824698
vn -0.928188 -0.155214 0.338194
vn -0.073827 0.639334 -0.765377
vn -0.781225 -0.147460 -0.606583
vn -0.923625 -0.125042 -0.362327
vn -0.781225 -0.147460 -0.606583
vn -0.514972 -0.810903 0.277920
vn -0.874864 -0.255664 0.411399
vn -0.395891 0.105072 0.912266
vn 0.353292 0.035301 0.934847
vn 0.242505 0.319890 0.915894
vn -0.386757 0.416052 0.822995
vn -0.654070 0.731811 0.191431
vn -0.928188 -0.155214 0.338194
vn -0.876789 0.100873 0.470176
vn -0.928188 -0.155214 0.338194
vn -0.826059 0.282257 -0.487808
vn 0.254120 -0.073519 0.964374
vn 0.307977 -0.325768 0.893882
vn -0.372917 -0.425214 0.824698
vn 0.871543 -0.021149 -0.489862
vn 0.667468 0.534419 -0.518539
vn 0.170576 0.724116 -0.668251
vn -0.215808 0.260495 -0.941047
vn -0.210615 0.491092 -0.845263
vn 0.274340 0.170365 -0.946421
s off
g polySurface462 tree_FBXASC032CopyFBXASC032Copy_ncl1_1
usemtl rock_low_03FBXASC032CopySG
f 1/1/1 2/2/2 3/3/3
f 4/4/4 5/5/5 2/2/6
f 6/6/7 7/7/8 2/2/9
f 8/8/10 9/9/11 10/10/12
f 11/11/13 12/12/14 9/9/15
f 13/13/16 14/14/17 15/15/18
f 16/16/19 17/17/20 14/14/21
f 17/17/22 18/18/23 14/14/24
f 17/17/25 19/19/26 18/18/27
f 20/20/28 2/2/29 21/21/30
f 6/6/31 2/2/32 20/20/33
f 22/22/34 7/7/35 23/23/36
f 24/24/37 25/25/38 22/22/39
f 4/4/40 1/1/41 26/26/42
f 1/1/43 27/27/44 26/26/45
f 5/5/46 4/4/47 28/28/48
f 4/4/49 26/26/50 28/28/51
f 29/29/52 30/30/53 31/31/54
f 32/32/55 33/33/56 30/30/57
f 9/9/58 34/34/59 10/10/60
f 12/12/61 35/35/62 34/34/63
f 36/36/64 15/15/65 37/37/66
f 15/15/67 14/14/68 37/37/69
f 37/37/70 14/14/71 38/38/72
f 14/14/73 18/18/74 38/38/75
f 18/18/76 19/19/77 38/38/78
f 19/19/79 39/39/80 38/38/81
f 21/21/82 31/31/83 30/30/84
f 20/20/85 30/30/86 33/33/87
f 6/6/88 33/33/89 10/10/90
f 23/23/91 10/10/92 34/34/93
f 22/22/94 34/34/95 35/35/96
f 40/40/97 36/36/98 37/37/99
f 28/28/100 26/26/101 38/38/102
f 26/26/103 37/37/104 38/38/105
f 21/21/106 28/28/107 39/39/108
f 28/28/109 38/38/110 39/39/111
f 1/1/112 4/4/113 2/2/114
f 5/5/115 21/21/116 2/2/117
f 11/11/118 41/41/119 12/12/120
f 7/7/121 6/6/122 23/23/123
f 21/21/124 5/5/125 28/28/126
f 30/30/127 29/29/128 32/32/129
f 33/33/130 32/32/131 10/10/132
f 34/34/133 9/9/134 12/12/135
f 30/30/136 20/20/137 21/21/138
f 10/10/139 23/23/140 6/6/141
f 35/35/142 24/24/143 22/22/144
f 32/32/145 8/8/146 10/10/147
f 8/8/148 11/11/149 9/9/150
f 13/13/151 16/16/152 14/14/153
f 25/25/154 42/42/155 22/22/156
f 34/34/157 22/22/158 23/23/159
f 37/37/160 26/26/161 40/40/162
f 31/31/163 43/43/164 29/29/165
f 33/33/166 6/6/167 20/20/168
