# This file uses centimeters as units for non-parametric coordinates.

mtllib Roca05.mtl
g default
v -1.160395 3.933396 0.481148
v -0.854979 3.668976 -0.007438
v -2.006448 3.776445 0.463422
v -1.669283 3.426351 -0.158840
v -1.875724 1.360490 1.422483
v -0.682152 1.360490 -0.412920
v -1.161873 1.782235 0.930584
v -0.145566 1.360490 -1.852072
v -1.024856 1.360490 -2.808558
v -0.436938 1.606443 -1.938119
v -2.685955 1.360490 -3.062991
v -2.654565 1.360490 -2.136063
v -2.577386 1.643745 -2.683359
v -2.633888 1.360490 1.416203
v -1.867230 1.538130 1.394051
v -2.648287 1.563607 1.225282
v -0.289954 2.312178 -1.634186
v -0.264845 2.433676 -0.815455
v -0.318759 2.048130 -1.683303
v -0.326887 1.905212 -0.939542
v -1.976173 1.963565 -1.960279
v -2.079207 2.250135 -1.635665
v -1.051080 1.994947 -1.866477
v -2.711806 2.067333 0.980076
v -3.152751 2.202869 -0.428054
v -3.168258 1.927742 -0.163282
v -1.054407 2.182927 1.047289
v -0.974262 2.549270 0.796523
v -1.880521 2.116819 1.346037
v -0.531482 1.850929 -1.684785
v -0.365667 1.637833 -1.258974
v -2.398645 1.832091 -2.404178
v -1.584714 1.843174 -2.199954
v -1.670022 1.615682 -2.499818
v -2.693345 1.763032 0.922835
v -3.721468 1.360490 0.095602
v -0.667380 1.960972 -0.092002
v -1.051080 1.994947 -1.866477
v -2.644232 1.849078 -1.661147
v -1.849870 1.782970 1.255936
v -1.880521 2.116819 1.346037
v -1.192147 2.446971 -1.330254
v -0.353477 1.360490 -1.296644
v -0.702097 1.605338 -0.223470
v -3.270191 1.747522 -0.103078
v -2.073295 2.596905 -1.068056
v -3.113232 2.568839 -0.135212
v -1.234620 2.752011 -1.017823
v -1.995003 2.869447 -0.502288
v -2.685955 1.360490 -3.062991
v -1.670022 1.615682 -2.499818
v -1.867230 1.538130 1.394051
v -1.079519 2.231671 -1.760112
v -1.051080 1.994947 -1.866477
v -1.867596 2.454357 0.906578
v -2.757603 2.368306 0.629983
v -1.584714 1.843174 -2.199954
v -1.849870 1.782970 1.255936
v -1.079519 2.231671 -1.760112
v -1.192147 2.446971 -1.330254
v -0.548097 2.496091 0.118868
v -0.762662 2.880526 0.011031
v -1.101304 2.809620 0.574950
v -1.234620 2.752011 -1.017823
v -0.524088 2.837691 -0.707626
v -1.871289 2.717662 0.667269
v -2.731386 2.667441 0.505530
v -1.867596 2.454357 0.906578
v -1.871289 2.717662 0.667269
v -1.067329 3.112814 -0.811768
v -0.615678 3.375384 -0.596467
v -2.966994 3.118726 0.101146
v -1.897506 3.595120 0.687221
v -2.006448 3.776445 0.463422
v -2.741723 3.365783 0.576052
v -1.107582 3.596228 0.541351
v -1.897506 3.595120 0.687221
v -0.770044 3.420438 0.008813
v -0.585396 3.230623 -0.629327
v -2.632407 3.099150 0.546151
v -1.863903 3.149009 0.623327
v -1.863903 3.149009 0.623327
v -1.127155 3.135710 0.491118
v -0.859045 3.180022 0.038731
v -0.641529 3.090290 -0.638931
v -1.897506 3.595120 0.687221
v -2.698150 3.550062 0.499617
v -1.875724 1.360490 1.422483
v -2.006448 3.776445 0.463422
v -1.897506 3.595120 0.687221
vt 0.841271 0.846111
vt 0.820457 0.849724
vt 0.847191 0.817411
vt 0.820659 0.820527
vt 0.854617 0.948122
vt 0.781268 0.925383
vt 0.832531 0.925060
vt 0.733388 0.923744
vt 0.692093 0.917805
vt 0.730209 0.910735
vt 0.709753 0.754983
vt 0.740990 0.749529
vt 0.724511 0.761778
vt 0.863913 0.707043
vt 0.887618 0.716463
vt 0.860955 0.716232
vt 0.745483 0.882703
vt 0.773740 0.882927
vt 0.741844 0.890121
vt 0.765011 0.900554
vt 0.748515 0.785916
vt 0.763824 0.785769
vt 0.743982 0.817512
vt 0.854545 0.736741
vt 0.808371 0.752981
vt 0.812825 0.740361
vt 0.836292 0.911455
vt 0.833032 0.897283
vt 0.871409 0.923792
vt 0.736459 0.899140
vt 0.752949 0.908453
vt 0.735155 0.769333
vt 0.736940 0.797431
vt 0.724673 0.792933
vt 0.853424 0.726308
vt 0.809159 0.710841
vt 0.795569 0.907838
vt 0.724288 0.888263
vt 0.761077 0.762477
vt 0.884151 0.724849
vt 0.885396 0.736109
vt 0.751049 0.852493
vt 0.750749 0.919058
vt 0.789216 0.918678
vt 0.812474 0.732832
vt 0.785578 0.791748
vt 0.822038 0.761350
vt 0.782746 0.821002
vt 0.805212 0.800735
vt 0.650243 0.878649
vt 0.687930 0.892957
vt 0.857051 0.942431
vt 0.728995 0.860196
vt 0.722055 0.867468
vt 0.881082 0.753722
vt 0.849137 0.751535
vt 0.698530 0.886425
vt 0.857791 0.932803
vt 0.752539 0.817904
vt 0.768676 0.817974
vt 0.805643 0.891305
vt 0.810869 0.876473
vt 0.832853 0.886685
vt 0.765554 0.850097
vt 0.785341 0.868801
vt 0.879095 0.765100
vt 0.849321 0.762628
vt 0.862982 0.901772
vt 0.859930 0.891529
vt 0.785553 0.840324
vt 0.797223 0.851417
vt 0.834036 0.777031
vt 0.878403 0.794772
vt 0.873190 0.803836
vt 0.849760 0.787124
vt 0.838641 0.857900
vt 0.865917 0.860131
vt 0.817158 0.858034
vt 0.793978 0.855509
vt 0.852991 0.777742
vt 0.879216 0.779524
vt 0.860835 0.877324
vt 0.834812 0.874126
vt 0.816312 0.866848
vt 0.791627 0.860198
vt 0.864931 0.862713
vt 0.847631 0.793552
vt 0.889333 0.710614
vt 0.866312 0.812404
vt 0.856668 0.822085
vn 0.336647 0.881543 0.330985
vn 0.574856 0.810791 -0.110262
vn -0.286821 0.955898 0.063188
vn 0.574856 0.810791 -0.110262
vn -0.253993 0.751427 -0.608970
vn -0.286821 0.955898 0.063188
vn 0.314153 0.001019 0.949372
vn 0.917194 -0.177083 0.356926
vn 0.690017 -0.393538 0.607458
vn 0.765237 0.610285 -0.204852
vn 0.204258 0.870757 -0.447282
vn 0.570617 0.695052 -0.437378
vn -0.323900 0.815093 -0.480326
vn -0.898265 0.397856 -0.186631
vn -0.550130 0.727222 -0.410495
vn -0.344541 0.590404 0.729873
vn 0.164865 0.348654 0.922637
vn -0.394172 0.680656 0.617524
vn 0.663222 0.524986 -0.533411
vn 0.931216 0.361743 -0.044487
vn 0.730267 -0.250293 -0.635660
vn 0.931216 0.361743 -0.044487
vn 0.953328 -0.258393 0.156204
vn 0.730267 -0.250293 -0.635660
vn -0.088225 0.874520 -0.476897
vn -0.266255 0.757949 -0.595502
vn 0.215703 0.458485 -0.862128
vn -0.656969 0.229351 0.718185
vn -0.936637 0.254173 -0.241054
vn -0.940143 0.333689 0.069157
vn 0.629258 0.031904 0.776542
vn 0.531876 0.519684 0.668608
vn -0.063440 0.244046 0.967687
vn 0.570617 0.695052 -0.437378
vn 0.738975 0.111825 -0.664388
vn 0.992992 0.090545 0.075946
vn -0.360463 0.840294 -0.404936
vn 0.165140 0.826061 -0.538842
vn -0.550130 0.727222 -0.410495
vn 0.165140 0.826061 -0.538842
vn 0.155084 0.814414 -0.559177
vn -0.550130 0.727222 -0.410495
vn -0.394172 0.680656 0.617524
vn -0.658701 0.340867 0.670763
vn -0.680316 0.725569 0.103539
vn 0.629258 0.031904 0.776542
vn 0.690017 -0.393538 0.607458
vn 0.892889 -0.270084 0.360282
vn 0.730267 -0.250293 -0.635660
vn 0.738975 0.111825 -0.664388
vn 0.215703 0.458485 -0.862128
vn -0.088225 0.874520 -0.476897
vn -0.360463 0.840294 -0.404936
vn -0.686174 0.622268 -0.376759
vn 0.038746 0.121130 0.991880
vn -0.063440 0.244046 0.967687
vn -0.658701 0.340867 0.670763
vn -0.063440 0.244046 0.967687
vn -0.656969 0.229351 0.718185
vn -0.658701 0.340867 0.670763
vn 0.931216 0.361743 -0.044487
vn 0.663222 0.524986 -0.533411
vn 0.059009 0.852861 -0.518793
vn 0.939788 -0.041489 0.339230
vn 0.765237 0.610285 -0.204852
vn 0.992992 0.090545 0.075946
vn 0.931216 0.361743 -0.044487
vn 0.892889 -0.270084 0.360282
vn 0.953328 -0.258393 0.156204
vn 0.953328 -0.258393 0.156204
vn 0.902145 -0.219994 0.371130
vn 0.992992 0.090545 0.075946
vn -0.360463 0.840294 -0.404936
vn -0.550130 0.727222 -0.410495
vn -0.686174 0.622268 -0.376759
vn -0.550130 0.727222 -0.410495
vn -0.898265 0.397856 -0.186631
vn -0.686174 0.622268 -0.376759
vn 0.953328 -0.258393 0.156204
vn 0.738975 0.111825 -0.664388
vn 0.730267 -0.250293 -0.635660
vn -0.686174 0.622268 -0.376759
vn -0.739685 0.671570 0.043128
vn -0.940143 0.333689 0.069157
vn -0.308109 0.809974 -0.499010
vn -0.938970 0.331750 -0.090984
vn 0.008137 0.674314 -0.738400
vn -0.938970 0.331750 -0.090984
vn -0.322646 0.737453 -0.593348
vn 0.008137 0.674314 -0.738400
vn 0.204258 0.870757 -0.447282
vn -0.323900 0.815093 -0.480326
vn 0.155084 0.814414 -0.559177
vn 0.314153 0.001019 0.949372
vn 0.690017 -0.393538 0.607458
vn 0.164865 0.348654 0.922637
vn 0.004935 0.659419 -0.751759
vn 0.730267 -0.250293 -0.635660
vn 0.215703 0.458485 -0.862128
vn -0.142782 0.725562 0.673182
vn -0.693732 0.408226 0.593370
vn -0.063440 0.244046 0.967687
vn -0.693732 0.408226 0.593370
vn -0.656969 0.229351 0.718185
vn -0.063440 0.244046 0.967687
vn 0.570617 0.695052 -0.437378
vn 0.155084 0.814414 -0.559177
vn 0.738975 0.111825 -0.664388
vn 0.155084 0.814414 -0.559177
vn 0.165140 0.826061 -0.538842
vn 0.738975 0.111825 -0.664388
vn 0.038746 0.121130 0.991880
vn -0.658701 0.340867 0.670763
vn 0.164865 0.348654 0.922637
vn 0.165140 0.826061 -0.538842
vn -0.360463 0.840294 -0.404936
vn 0.215703 0.458485 -0.862128
vn -0.360463 0.840294 -0.404936
vn -0.088225 0.874520 -0.476897
vn 0.215703 0.458485 -0.862128
vn 0.690017 -0.393538 0.607458
vn 0.629258 0.031904 0.776542
vn 0.038746 0.121130 0.991880
vn 0.629258 0.031904 0.776542
vn -0.063440 0.244046 0.967687
vn 0.038746 0.121130 0.991880
vn 0.004935 0.659419 -0.751759
vn -0.266255 0.757949 -0.595502
vn 0.059009 0.852861 -0.518793
vn 0.914009 0.143490 0.379470
vn 0.837664 0.409016 0.361973
vn 0.531876 0.519684 0.668608
vn 0.837664 0.409016 0.361973
vn 0.453655 0.482539 0.749235
vn 0.531876 0.519684 0.668608
vn 0.931216 0.361743 -0.044487
vn 0.008137 0.674314 -0.738400
vn 0.751340 0.526133 -0.398337
vn 0.059009 0.852861 -0.518793
vn -0.308109 0.809974 -0.499010
vn 0.008137 0.674314 -0.738400
vn -0.936637 0.254173 -0.241054
vn -0.938970 0.331750 -0.090984
vn -0.266255 0.757949 -0.595502
vn -0.938970 0.331750 -0.090984
vn -0.308109 0.809974 -0.499010
vn -0.266255 0.757949 -0.595502
vn -0.693732 0.408226 0.593370
vn -0.075614 0.397426 0.914514
vn -0.595692 0.212822 0.774505
vn -0.142782 0.725562 0.673182
vn 0.531876 0.519684 0.668608
vn -0.075614 0.397426 0.914514
vn 0.531876 0.519684 0.668608
vn 0.453655 0.482539 0.749235
vn -0.075614 0.397426 0.914514
vn -0.026797 0.595816 -0.802674
vn -0.253993 0.751427 -0.608970
vn 0.597638 0.675461 -0.431951
vn -0.253993 0.751427 -0.608970
vn 0.574856 0.810791 -0.110262
vn 0.597638 0.675461 -0.431951
vn 0.992992 0.090545 0.075946
vn 0.902145 -0.219994 0.371130
vn 0.939788 -0.041489 0.339230
vn 0.902145 -0.219994 0.371130
vn 0.917194 -0.177083 0.356926
vn 0.939788 -0.041489 0.339230
vn -0.936637 0.254173 -0.241054
vn -0.686174 0.622268 -0.376759
vn -0.940143 0.333689 0.069157
vn -0.739685 0.671570 0.043128
vn -0.686174 0.622268 -0.376759
vn -0.680316 0.725569 0.103539
vn 0.914009 0.143490 0.379470
vn 0.629258 0.031904 0.776542
vn 0.892889 -0.270084 0.360282
vn 0.892889 -0.270084 0.360282
vn 0.690017 -0.393538 0.607458
vn 0.902145 -0.219994 0.371130
vn -0.739685 0.671570 0.043128
vn -0.658701 0.340867 0.670763
vn -0.940143 0.333689 0.069157
vn -0.862881 0.468438 -0.189745
vn -0.286821 0.955898 0.063188
vn -0.253993 0.751427 -0.608970
vn 0.914009 0.143490 0.379470
vn 0.931216 0.361743 -0.044487
vn 0.837664 0.409016 0.361973
vn 0.931216 0.361743 -0.044487
vn 0.751340 0.526133 -0.398337
vn 0.837664 0.409016 0.361973
vn -0.936637 0.254173 -0.241054
vn -0.693732 0.408226 0.593370
vn -0.938970 0.331750 -0.090984
vn -0.322646 0.737453 -0.593348
vn -0.253993 0.751427 -0.608970
vn -0.026797 0.595816 -0.802674
vn -0.862881 0.468438 -0.189745
vn -0.253993 0.751427 -0.608970
vn -0.322646 0.737453 -0.593348
vn -0.067403 0.310270 0.948256
vn -0.286821 0.955898 0.063188
vn -0.612899 0.101499 0.783615
vn 0.580734 0.075419 0.810592
vn 0.336647 0.881543 0.330985
vn -0.067403 0.310270 0.948256
vn 0.574856 0.810791 -0.110262
vn 0.336647 0.881543 0.330985
vn 0.916951 -0.003604 0.398983
vn 0.336647 0.881543 0.330985
vn 0.580734 0.075419 0.810592
vn 0.916951 -0.003604 0.398983
vn 0.597638 0.675461 -0.431951
vn 0.574856 0.810791 -0.110262
vn 0.902743 0.018695 -0.429773
vn 0.574856 0.810791 -0.110262
vn 0.916951 -0.003604 0.398983
vn 0.902743 0.018695 -0.429773
vn -0.322646 0.737453 -0.593348
vn -0.026797 0.595816 -0.802674
vn 0.008137 0.674314 -0.738400
vn -0.938970 0.331750 -0.090984
vn -0.862881 0.468438 -0.189745
vn -0.322646 0.737453 -0.593348
vn -0.595692 0.212822 0.774505
vn -0.437158 -0.097270 0.894109
vn -0.862881 0.468438 -0.189745
vn -0.437158 -0.097270 0.894109
vn -0.595692 0.212822 0.774505
vn 0.024863 -0.021747 0.999454
vn -0.595692 0.212822 0.774505
vn -0.075614 0.397426 0.914514
vn 0.024863 -0.021747 0.999454
vn 0.024863 -0.021747 0.999454
vn -0.075614 0.397426 0.914514
vn 0.568191 0.053483 0.821157
vn -0.075614 0.397426 0.914514
vn 0.453655 0.482539 0.749235
vn 0.568191 0.053483 0.821157
vn 0.837664 0.409016 0.361973
vn 0.891419 -0.005963 0.453140
vn 0.568191 0.053483 0.821157
vn 0.837664 0.409016 0.361973
vn 0.751340 0.526133 -0.398337
vn 0.891419 -0.005963 0.453140
vn 0.751340 0.526133 -0.398337
vn 0.882213 0.129603 -0.452662
vn 0.891419 -0.005963 0.453140
vn 0.751340 0.526133 -0.398337
vn 0.008137 0.674314 -0.738400
vn 0.882213 0.129603 -0.452662
vn 0.008137 0.674314 -0.738400
vn -0.026797 0.595816 -0.802674
vn 0.882213 0.129603 -0.452662
vn -0.067403 0.310270 0.948256
vn -0.612899 0.101499 0.783615
vn 0.024863 -0.021747 0.999454
vn -0.612899 0.101499 0.783615
vn -0.437158 -0.097270 0.894109
vn 0.024863 -0.021747 0.999454
vn 0.580734 0.075419 0.810592
vn -0.067403 0.310270 0.948256
vn 0.568191 0.053483 0.821157
vn -0.067403 0.310270 0.948256
vn 0.024863 -0.021747 0.999454
vn 0.568191 0.053483 0.821157
vn 0.580734 0.075419 0.810592
vn 0.568191 0.053483 0.821157
vn 0.891419 -0.005963 0.453140
vn 0.902743 0.018695 -0.429773
vn 0.916951 -0.003604 0.398983
vn 0.882213 0.129603 -0.452662
vn 0.916951 -0.003604 0.398983
vn 0.891419 -0.005963 0.453140
vn 0.882213 0.129603 -0.452662
vn 0.902743 0.018695 -0.429773
vn 0.882213 0.129603 -0.452662
vn -0.026797 0.595816 -0.802674
vn 0.204258 0.870757 -0.447282
vn 0.155084 0.814414 -0.559177
vn 0.570617 0.695052 -0.437378
vn -0.656969 0.229351 0.718185
vn -0.693732 0.408226 0.593370
vn -0.936637 0.254173 -0.241054
vn 0.738975 0.111825 -0.664388
vn 0.953328 -0.258393 0.156204
vn 0.992992 0.090545 0.075946
vn -0.658701 0.340867 0.670763
vn -0.739685 0.671570 0.043128
vn -0.680316 0.725569 0.103539
vn 0.738975 0.111825 -0.664388
vn 0.165140 0.826061 -0.538842
vn 0.215703 0.458485 -0.862128
vn 0.931216 0.361743 -0.044487
vn 0.914009 0.143490 0.379470
vn 0.892889 -0.270084 0.360282
vn -0.266255 0.757949 -0.595502
vn -0.088225 0.874520 -0.476897
vn -0.686174 0.622268 -0.376759
vn 0.953328 -0.258393 0.156204
vn 0.892889 -0.270084 0.360282
vn 0.902145 -0.219994 0.371130
vn -0.323900 0.815093 -0.480326
vn -0.550130 0.727222 -0.410495
vn 0.155084 0.814414 -0.559177
vn 0.059009 0.852861 -0.518793
vn -0.266255 0.757949 -0.595502
vn -0.308109 0.809974 -0.499010
vn -0.936637 0.254173 -0.241054
vn -0.266255 0.757949 -0.595502
vn -0.686174 0.622268 -0.376759
vn 0.914009 0.143490 0.379470
vn 0.531876 0.519684 0.668608
vn 0.629258 0.031904 0.776542
vn -0.658701 0.340867 0.670763
vn -0.656969 0.229351 0.718185
vn -0.940143 0.333689 0.069157
vn -0.862881 0.468438 -0.189745
vn -0.515720 0.818945 0.251719
vn -0.286821 0.955898 0.063188
vn -0.693732 0.408226 0.593370
vn -0.595692 0.212822 0.774505
vn -0.938970 0.331750 -0.090984
vn -0.612899 0.101499 0.783615
vn -0.515720 0.818945 0.251719
vn -0.862881 0.468438 -0.189745
vn -0.026797 0.595816 -0.802674
vn 0.597638 0.675461 -0.431951
vn 0.902743 0.018695 -0.429773
vn -0.862881 0.468438 -0.189745
vn -0.938970 0.331750 -0.090984
vn -0.595692 0.212822 0.774505
vn 0.568191 0.053483 0.821157
vn 0.453655 0.482539 0.749235
vn 0.837664 0.409016 0.361973
vn -0.437158 -0.097270 0.894109
vn -0.612899 0.101499 0.783615
vn -0.862881 0.468438 -0.189745
vn 0.891419 -0.005963 0.453140
vn 0.916951 -0.003604 0.398983
vn 0.580734 0.075419 0.810592
vn 0.917194 -0.177083 0.356926
vn 0.902145 -0.219994 0.371130
vn 0.690017 -0.393538 0.607458
vn -0.344541 0.590404 0.729873
vn 0.314153 0.001019 0.949372
vn 0.164865 0.348654 0.922637
vn -0.266255 0.757949 -0.595502
vn 0.004935 0.659419 -0.751759
vn 0.215703 0.458485 -0.862128
vn 0.531876 0.519684 0.668608
vn -0.142782 0.725562 0.673182
vn -0.063440 0.244046 0.967687
vn 0.690017 -0.393538 0.607458
vn 0.038746 0.121130 0.991880
vn 0.164865 0.348654 0.922637
vn 0.663222 0.524986 -0.533411
vn 0.004935 0.659419 -0.751759
vn 0.059009 0.852861 -0.518793
vn 0.765237 0.610285 -0.204852
vn 0.570617 0.695052 -0.437378
vn 0.992992 0.090545 0.075946
vn 0.004935 0.659419 -0.751759
vn 0.663222 0.524986 -0.533411
vn 0.730267 -0.250293 -0.635660
vn -0.658701 0.340867 0.670763
vn -0.394172 0.680656 0.617524
vn 0.164865 0.348654 0.922637
vn 0.931216 0.361743 -0.044487
vn 0.059009 0.852861 -0.518793
vn 0.008137 0.674314 -0.738400
vn -0.693732 0.408226 0.593370
vn -0.142782 0.725562 0.673182
vn -0.075614 0.397426 0.914514
vn -0.686174 0.622268 -0.376759
vn -0.898265 0.397856 -0.186631
vn -0.680316 0.725569 0.103539
vn -0.680316 0.725569 0.103539
vn -0.344541 0.590404 0.729873
vn -0.394172 0.680656 0.617524
vn -0.286821 0.955898 0.063188
vn -0.515720 0.818945 0.251719
vn -0.612899 0.101499 0.783615
vn 0.336647 0.881543 0.330985
vn -0.286821 0.955898 0.063188
vn -0.067403 0.310270 0.948256
s off
g polySurface460 tree_FBXASC032CopyFBXASC032Copy_ncl1_1
usemtl rock_low_04SG
f 1/1/1 2/2/2 3/3/3
f 2/2/4 4/4/5 3/3/6
f 5/5/7 6/6/8 7/7/9
f 8/8/10 9/9/11 10/10/12
f 11/11/13 12/12/14 13/13/15
f 14/14/16 15/15/17 16/16/18
f 17/17/19 18/18/20 19/19/21
f 18/18/22 20/20/23 19/19/24
f 21/21/25 22/22/26 23/23/27
f 24/24/28 25/25/29 26/26/30
f 27/27/31 28/28/32 29/29/33
f 10/10/34 30/30/35 31/31/36
f 32/32/37 33/33/38 13/13/39
f 33/33/40 34/34/41 13/13/42
f 16/16/43 35/35/44 36/36/45
f 27/27/46 7/7/47 37/37/48
f 19/19/49 30/30/50 38/38/51
f 21/21/52 32/32/53 39/39/54
f 40/40/55 41/41/56 35/35/57
f 41/41/58 24/24/59 35/35/60
f 18/18/61 17/17/62 42/42/63
f 43/43/64 8/8/65 31/31/66
f 18/18/67 37/37/68 20/20/69
f 20/20/70 44/44/71 31/31/72
f 32/32/73 13/13/74 39/39/75
f 13/13/76 12/12/77 39/39/78
f 20/20/79 30/30/80 19/19/81
f 39/39/82 45/45/83 26/26/84
f 46/46/85 47/47/86 48/48/87
f 47/47/88 49/49/89 48/48/90
f 9/9/91 50/50/92 51/51/93
f 5/5/94 7/7/95 52/52/96
f 53/53/97 19/19/98 54/54/99
f 55/55/100 56/56/101 41/41/102
f 56/56/103 24/24/104 41/41/105
f 10/10/106 51/51/107 30/30/108
f 51/51/109 57/57/110 30/30/111
f 40/40/112 35/35/113 15/15/114
f 33/33/115 32/32/116 23/23/117
f 32/32/118 21/21/119 23/23/120
f 7/7/121 27/27/122 58/58/123
f 27/27/124 29/29/125 58/58/126
f 59/59/127 22/22/128 60/60/129
f 61/61/130 62/62/131 28/28/132
f 62/62/133 63/63/134 28/28/135
f 18/18/136 64/64/137 65/65/138
f 60/60/139 46/46/140 48/48/141
f 25/25/142 47/47/143 22/22/144
f 47/47/145 46/46/146 22/22/147
f 56/56/148 66/66/149 67/67/150
f 68/68/151 28/28/152 69/69/153
f 28/28/154 63/63/155 69/69/156
f 70/70/157 4/4/158 71/71/159
f 4/4/160 2/2/161 71/71/162
f 31/31/163 44/44/164 43/43/165
f 44/44/166 6/6/167 43/43/168
f 25/25/169 39/39/170 26/26/171
f 45/45/172 39/39/173 36/36/174
f 61/61/175 27/27/176 37/37/177
f 37/37/178 7/7/179 44/44/180
f 45/45/181 35/35/182 26/26/183
f 72/72/184 3/3/185 4/4/186
f 61/61/187 18/18/188 62/62/189
f 18/18/190 65/65/191 62/62/192
f 25/25/193 56/56/194 47/47/195
f 49/49/196 4/4/197 70/70/198
f 72/72/199 4/4/200 49/49/201
f 73/73/202 74/74/203 75/75/204
f 76/76/205 1/1/206 77/77/207
f 2/2/208 1/1/209 78/78/210
f 1/1/211 76/76/212 78/78/213
f 71/71/214 2/2/215 79/79/216
f 2/2/217 78/78/218 79/79/219
f 49/49/220 70/70/221 48/48/222
f 47/47/223 72/72/224 49/49/225
f 67/67/226 80/80/227 72/72/228
f 80/80/229 67/67/230 81/81/231
f 67/67/232 66/66/233 81/81/234
f 82/82/235 69/69/236 83/83/237
f 69/69/238 63/63/239 83/83/240
f 62/62/241 84/84/242 83/83/243
f 62/62/244 65/65/245 84/84/246
f 65/65/247 85/85/248 84/84/249
f 65/65/250 64/64/251 85/85/252
f 64/64/253 70/70/254 85/85/255
f 73/73/256 75/75/257 81/81/258
f 75/75/259 80/80/260 81/81/261
f 76/76/262 86/86/263 83/83/264
f 86/86/265 82/82/266 83/83/267
f 76/76/268 83/83/269 84/84/270
f 79/79/271 78/78/272 85/85/273
f 78/78/274 84/84/275 85/85/276
f 79/79/277 85/85/278 70/70/279
f 9/9/280 51/51/281 10/10/282
f 24/24/283 56/56/284 25/25/285
f 30/30/286 20/20/287 31/31/288
f 35/35/289 45/45/290 36/36/291
f 30/30/292 57/57/293 38/38/294
f 18/18/295 61/61/296 37/37/297
f 22/22/298 21/21/299 39/39/300
f 20/20/301 37/37/302 44/44/303
f 11/11/304 13/13/305 34/34/306
f 60/60/307 22/22/308 46/46/309
f 25/25/310 22/22/311 39/39/312
f 61/61/313 28/28/314 27/27/315
f 35/35/316 24/24/317 26/26/318
f 72/72/319 87/87/320 3/3/321
f 56/56/322 67/67/323 47/47/324
f 75/75/325 87/87/326 72/72/327
f 70/70/328 71/71/329 79/79/330
f 72/72/331 47/47/332 67/67/333
f 83/83/334 63/63/335 62/62/336
f 80/80/337 75/75/338 72/72/339
f 84/84/340 78/78/341 76/76/342
f 6/6/343 44/44/344 7/7/345
f 14/14/346 88/88/347 15/15/348
f 22/22/349 59/59/350 23/23/351
f 28/28/352 68/68/353 29/29/354
f 7/7/355 58/58/356 52/52/357
f 17/17/358 53/53/359 42/42/360
f 8/8/361 10/10/362 31/31/363
f 53/53/364 17/17/365 19/19/366
f 35/35/367 16/16/368 15/15/369
f 18/18/370 42/42/371 64/64/372
f 56/56/373 55/55/374 66/66/375
f 39/39/376 12/12/377 36/36/378
f 36/36/379 14/14/380 16/16/381
f 89/89/382 87/87/383 75/75/384
f 1/1/385 3/3/386 90/90/387
