# This file uses centimeters as units for non-parametric coordinates.

mtllib Roca01.mtl
g default
v 6.725766 8.969859 -0.392280
v 6.569919 8.408527 -1.702178
v 5.227523 8.702118 -0.554777
v 8.375783 2.243847 -7.374949
v 9.621054 2.395990 -5.371509
v 8.542706 1.378948 -7.716921
v 9.813457 1.378948 -5.523299
v 3.691993 1.378948 -7.874245
v 3.783567 1.631545 -7.598751
v 4.516992 1.378949 -9.202608
v 4.589374 1.569510 -8.952958
v 5.735680 2.034079 -8.683741
v 4.744482 2.195834 -7.034836
v 5.767802 1.378949 -9.173055
v 3.656167 1.378948 -1.891994
v 5.427683 1.378948 -1.410062
v 3.923903 2.256768 -1.961795
v 6.976889 1.378948 -0.986107
v 8.091420 1.378948 -2.621734
v 6.937747 3.099132 -1.134935
v 9.312321 3.000903 -5.606765
v 5.208316 2.689216 -7.203976
v 5.817292 2.845059 -8.242056
v 5.487509 2.322134 -1.153034
v 4.298371 2.917068 -2.235439
v 9.471119 4.407187 -4.859676
v 9.377683 5.580079 -2.904979
v 9.593357 4.687483 -2.989184
v 5.807317 3.958860 -5.575743
v 7.698492 5.199699 -4.634031
v 8.225845 4.088117 -5.727886
v 4.237807 4.180807 -1.472846
v 4.862288 4.945988 -3.501031
v 4.521431 3.436300 -2.006477
v 6.989814 4.512809 -0.728346
v 6.879763 5.386925 -0.280749
v 5.391492 4.262426 -0.742004
v 9.152415 3.736173 -5.024007
v 9.342973 3.136800 -4.094491
v 4.757035 3.165978 -4.587131
v 5.428421 3.499454 -1.291156
v 6.870158 3.673023 -1.246836
v 6.937747 3.099132 -1.134935
v 6.870158 3.673023 -1.246836
v 8.225479 3.816310 -2.095485
v 6.989814 4.512809 -0.728346
v 8.461460 4.600702 -1.695529
v 2.254306 1.378948 -5.035454
v 2.575234 1.775936 -5.029913
v 3.611478 2.282619 -4.766613
v 9.219993 1.378948 -4.387714
v 9.162756 3.821481 -3.239925
v 7.694430 5.968203 -3.597781
v 5.986429 5.356654 -4.270269
v 6.374192 6.744465 -2.438923
v 6.976889 1.378948 -0.986107
v 7.523072 3.580700 -6.669594
v 8.105092 6.341559 -1.432957
v 6.729460 6.052037 -0.408900
v 8.568556 5.612570 -1.456600
v 6.879763 5.386925 -0.280749
v 8.753947 6.247399 -2.540850
v 5.274055 5.795375 -0.690665
v 4.091934 5.646549 -1.364633
v 6.729460 6.052037 -0.408900
v 2.244340 1.378948 -2.505026
v 4.080482 7.840175 -0.967271
v 4.757404 5.614047 -2.654963
v 7.689633 6.464915 -3.322287
v 5.468674 7.058745 -0.554777
v 4.141789 6.459002 -1.247209
v 7.942967 6.914716 -1.411544
v 8.422318 7.295096 -2.671953
v 4.638125 7.347163 -1.995767
v 6.360901 7.392960 -2.362843
v 6.813290 8.228309 -0.305860
v 6.725766 8.969859 -0.392280
v 7.651222 8.442495 -1.276381
v 6.725766 8.969859 -0.392280
v 7.903079 7.840913 -1.285615
v 6.813290 8.228309 -0.305860
v 4.304277 7.126692 -1.151192
v 6.691049 7.402926 -0.582099
v 6.691049 7.402926 -0.582099
v 7.862456 7.331283 -1.440346
vt 0.350869 0.785558
vt 0.308316 0.759707
vt 0.378271 0.739978
vt 0.052542 0.577155
vt 0.047009 0.659892
vt 0.021576 0.566403
vt 0.011391 0.654951
vt 0.133115 0.416931
vt 0.141554 0.427498
vt 0.079535 0.426432
vt 0.087184 0.434660
vt 0.081526 0.478357
vt 0.148560 0.471383
vt 0.057098 0.463219
vt 0.353200 0.452638
vt 0.381814 0.475840
vt 0.325032 0.500711
vt 0.025945 0.842883
vt 0.022808 0.774195
vt 0.085771 0.838192
vt 0.069082 0.648179
vt 0.142639 0.494836
vt 0.102900 0.500787
vt 0.380941 0.510066
vt 0.319641 0.527317
vt 0.119714 0.669029
vt 0.167113 0.727029
vt 0.135033 0.728168
vt 0.185777 0.559720
vt 0.178228 0.645237
vt 0.124167 0.624071
vt 0.342611 0.577541
vt 0.270109 0.595271
vt 0.331426 0.546409
vt 0.441870 0.588141
vt 0.440557 0.622727
vt 0.386009 0.583567
vt 0.096888 0.664483
vt 0.078664 0.701188
vt 0.234202 0.520030
vt 0.377974 0.550930
vt 0.431363 0.554777
vt 0.432343 0.535105
vt 0.106646 0.838426
vt 0.108664 0.781283
vt 0.142160 0.842491
vt 0.139440 0.782856
vt 0.243100 0.405905
vt 0.239841 0.423456
vt 0.236819 0.466906
vt 0.016458 0.700522
vt 0.107049 0.727400
vt 0.205258 0.682609
vt 0.227756 0.618525
vt 0.269566 0.696556
vt 0.435705 0.476810
vt 0.112430 0.584253
vt 0.200296 0.786281
vt 0.202544 0.846997
vt 0.173059 0.779236
vt 0.177449 0.849993
vt 0.193701 0.739998
vt 0.393986 0.633808
vt 0.347197 0.626226
vt 0.443333 0.646832
vt 0.322845 0.436062
vt 0.358949 0.698782
vt 0.295288 0.626469
vt 0.216480 0.698414
vt 0.400671 0.678657
vt 0.350191 0.652176
vt 0.219921 0.787070
vt 0.226443 0.738535
vt 0.324997 0.681645
vt 0.283669 0.718184
vt 0.435430 0.728851
vt 0.429527 0.754371
vt 0.274800 0.780925
vt 0.307148 0.813770
vt 0.252392 0.782494
vt 0.281665 0.824737
vt 0.356306 0.673933
vt 0.437683 0.698008
vt 0.250175 0.832551
vt 0.234351 0.785329
vn 0.212399 0.832467 0.511748
vn -0.072067 0.785882 -0.614163
vn -0.460708 0.767819 0.445200
vn 0.545729 0.516119 -0.660152
vn 0.971235 0.214653 -0.103084
vn 0.606386 0.408058 -0.682485
vn 0.971235 0.214653 -0.103084
vn 0.970765 0.229965 -0.068788
vn 0.606386 0.408058 -0.682485
vn -0.645413 0.662125 -0.380831
vn -0.535807 0.781534 -0.319556
vn -0.337509 0.743518 -0.577294
vn -0.535807 0.781534 -0.319556
vn -0.394052 0.815232 -0.424406
vn -0.337509 0.743518 -0.577294
vn -0.394052 0.815232 -0.424406
vn -0.535807 0.781534 -0.319556
vn -0.032261 0.663490 -0.747489
vn -0.535807 0.781534 -0.319556
vn -0.548171 0.780710 -0.300002
vn -0.032261 0.663490 -0.747489
vn 0.190857 0.554831 -0.809776
vn -0.337509 0.743518 -0.577294
vn -0.032261 0.663490 -0.747489
vn -0.336646 0.176229 0.924994
vn -0.333613 -0.167135 0.927776
vn -0.562137 0.484810 0.670046
vn 0.402611 0.017828 0.915198
vn 0.801457 -0.112470 0.587382
vn 0.332350 0.077630 0.939956
vn 0.971235 0.214653 -0.103084
vn 0.545729 0.516119 -0.660152
vn 0.799021 0.444679 -0.404754
vn -0.032261 0.663490 -0.747489
vn -0.734550 0.589212 -0.336550
vn -0.234159 0.700446 -0.674199
vn -0.562137 0.484810 0.670046
vn -0.324512 -0.003820 0.945874
vn -0.815855 0.472561 0.333266
vn 0.841146 0.224932 -0.491812
vn 0.844816 0.534676 0.020182
vn 0.944177 -0.121300 0.306293
vn -0.454086 0.729157 -0.511992
vn 0.103621 0.766765 -0.633509
vn 0.341077 0.606843 -0.717920
vn -0.884327 -0.301918 0.356106
vn -0.850490 0.260671 -0.456856
vn -0.949987 -0.063108 0.305847
vn 0.325056 -0.445322 0.834282
vn 0.180879 -0.037129 0.982804
vn -0.268596 -0.357207 0.894572
vn 0.799021 0.444679 -0.404754
vn 0.901712 0.125227 -0.413803
vn 0.968374 0.042334 0.245886
vn -0.234159 0.700446 -0.674199
vn -0.454086 0.729157 -0.511992
vn 0.545729 0.516119 -0.660152
vn -0.815855 0.472561 0.333266
vn -0.949987 -0.063108 0.305847
vn -0.656738 0.734830 -0.169470
vn -0.338768 -0.259674 0.904326
vn -0.324512 -0.003820 0.945874
vn 0.278386 -0.209056 0.937441
vn -0.324512 -0.003820 0.945874
vn 0.332350 0.077630 0.939956
vn 0.278386 -0.209056 0.937441
vn 0.278386 -0.209056 0.937441
vn 0.665205 -0.353029 0.657931
vn 0.325056 -0.445322 0.834282
vn 0.665205 -0.353029 0.657931
vn 0.659162 -0.350077 0.665546
vn 0.325056 -0.445322 0.834282
vn 0.841146 0.224932 -0.491812
vn 0.901712 0.125227 -0.413803
vn 0.341077 0.606843 -0.717920
vn -0.884327 -0.301918 0.356106
vn -0.949987 -0.063108 0.305847
vn -0.268596 -0.357207 0.894572
vn 0.844816 0.534676 0.020182
vn 0.841146 0.224932 -0.491812
vn 0.103621 0.766765 -0.633509
vn -0.758775 0.629137 -0.168663
vn -0.612349 0.776521 -0.148473
vn -0.645413 0.662125 -0.380831
vn -0.612349 0.776521 -0.148473
vn -0.535807 0.781534 -0.319556
vn -0.645413 0.662125 -0.380831
vn -0.515464 0.849697 -0.110961
vn -0.548171 0.780710 -0.300002
vn -0.612349 0.776521 -0.148473
vn -0.548171 0.780710 -0.300002
vn -0.535807 0.781534 -0.319556
vn -0.612349 0.776521 -0.148473
vn 0.893639 -0.081825 0.441264
vn 0.971235 0.214653 -0.103084
vn 0.968374 0.042334 0.245886
vn -0.548171 0.780710 -0.300002
vn -0.656738 0.734830 -0.169470
vn -0.734550 0.589212 -0.336550
vn 0.844816 0.534676 0.020182
vn 0.659162 -0.350077 0.665546
vn 0.944177 -0.121300 0.306293
vn 0.823157 -0.435938 0.363827
vn 0.665205 -0.353029 0.657931
vn 0.968374 0.042334 0.245886
vn -0.454086 0.729157 -0.511992
vn -0.234159 0.700446 -0.674199
vn -0.656738 0.734830 -0.169470
vn -0.234159 0.700446 -0.674199
vn -0.734550 0.589212 -0.336550
vn -0.656738 0.734830 -0.169470
vn 0.841146 0.224932 -0.491812
vn 0.944177 -0.121300 0.306293
vn 0.901712 0.125227 -0.413803
vn 0.944177 -0.121300 0.306293
vn 0.823157 -0.435938 0.363827
vn 0.901712 0.125227 -0.413803
vn 0.170572 0.717579 -0.675267
vn -0.325088 0.719920 -0.613215
vn -0.347652 0.391667 -0.851901
vn -0.032261 0.663490 -0.747489
vn 0.545729 0.516119 -0.660152
vn 0.190857 0.554831 -0.809776
vn 0.545729 0.516119 -0.660152
vn 0.606386 0.408058 -0.682485
vn 0.190857 0.554831 -0.809776
vn -0.333613 -0.167135 0.927776
vn 0.402611 0.017828 0.915198
vn -0.324512 -0.003820 0.945874
vn 0.545729 0.516119 -0.660152
vn -0.032261 0.663490 -0.747489
vn -0.234159 0.700446 -0.674199
vn -0.324512 -0.003820 0.945874
vn 0.402611 0.017828 0.915198
vn 0.332350 0.077630 0.939956
vn 0.103621 0.766765 -0.633509
vn 0.841146 0.224932 -0.491812
vn 0.341077 0.606843 -0.717920
vn 0.799021 0.444679 -0.404754
vn 0.545729 0.516119 -0.660152
vn 0.901712 0.125227 -0.413803
vn 0.545729 0.516119 -0.660152
vn -0.060711 0.583682 -0.809710
vn 0.901712 0.125227 -0.413803
vn -0.338768 -0.259674 0.904326
vn -0.949987 -0.063108 0.305847
vn -0.324512 -0.003820 0.945874
vn -0.060711 0.583682 -0.809710
vn -0.454086 0.729157 -0.511992
vn 0.341077 0.606843 -0.717920
vn -0.338768 -0.259674 0.904326
vn 0.278386 -0.209056 0.937441
vn -0.268596 -0.357207 0.894572
vn 0.699783 0.299008 0.648766
vn 0.176770 0.130412 0.975574
vn 0.749844 0.098621 0.654223
vn 0.176770 0.130412 0.975574
vn 0.180879 -0.037129 0.982804
vn 0.749844 0.098621 0.654223
vn 0.844816 0.534676 0.020182
vn 0.170572 0.717579 -0.675267
vn 0.837427 0.539253 -0.089007
vn 0.103621 0.766765 -0.633509
vn -0.325088 0.719920 -0.613215
vn 0.170572 0.717579 -0.675267
vn -0.454086 0.729157 -0.511992
vn -0.850490 0.260671 -0.456856
vn -0.325088 0.719920 -0.613215
vn -0.884327 -0.301918 0.356106
vn -0.347385 -0.066513 0.935361
vn -0.962569 -0.029703 0.269404
vn -0.268596 -0.357207 0.894572
vn 0.176770 0.130412 0.975574
vn -0.347385 -0.066513 0.935361
vn 0.968374 0.042334 0.245886
vn 0.665205 -0.353029 0.657931
vn 0.893639 -0.081825 0.441264
vn 0.665205 -0.353029 0.657931
vn 0.801457 -0.112470 0.587382
vn 0.893639 -0.081825 0.441264
vn -0.850490 0.260671 -0.456856
vn -0.454086 0.729157 -0.511992
vn -0.949987 -0.063108 0.305847
vn 0.944177 -0.121300 0.306293
vn 0.659162 -0.350077 0.665546
vn 0.823157 -0.435938 0.363827
vn 0.659162 -0.350077 0.665546
vn 0.665205 -0.353029 0.657931
vn 0.823157 -0.435938 0.363827
vn -0.758775 0.629137 -0.168663
vn -0.535952 0.804171 0.257028
vn -0.612349 0.776521 -0.148473
vn -0.535952 0.804171 0.257028
vn -0.562137 0.484810 0.670046
vn -0.612349 0.776521 -0.148473
vn -0.562137 0.484810 0.670046
vn -0.515464 0.849697 -0.110961
vn -0.612349 0.776521 -0.148473
vn -0.515464 0.849697 -0.110961
vn -0.815855 0.472561 0.333266
vn -0.656738 0.734830 -0.169470
vn 0.749844 0.098621 0.654223
vn 0.180879 -0.037129 0.982804
vn 0.659162 -0.350077 0.665546
vn 0.180879 -0.037129 0.982804
vn 0.325056 -0.445322 0.834282
vn 0.659162 -0.350077 0.665546
vn -0.913229 0.336525 0.229706
vn -0.460708 0.767819 0.445200
vn -0.072067 0.785882 -0.614163
vn 0.749844 0.098621 0.654223
vn 0.837427 0.539253 -0.089007
vn 0.699783 0.299008 0.648766
vn -0.850490 0.260671 -0.456856
vn -0.884327 -0.301918 0.356106
vn -0.759717 0.346210 -0.550426
vn 0.170572 0.717579 -0.675267
vn -0.347652 0.391667 -0.851901
vn 0.066047 0.470937 -0.879691
vn -0.347385 -0.066513 0.935361
vn -0.217341 -0.037215 0.975386
vn -0.962569 -0.029703 0.269404
vn -0.217341 -0.037215 0.975386
vn -0.945456 0.080640 0.315609
vn -0.962569 -0.029703 0.269404
vn -0.347385 -0.066513 0.935361
vn 0.176770 0.130412 0.975574
vn -0.217341 -0.037215 0.975386
vn 0.176770 0.130412 0.975574
vn 0.699783 0.299008 0.648766
vn 0.741663 0.194662 0.641905
vn 0.837427 0.539253 -0.089007
vn 0.712265 0.551606 -0.434062
vn 0.699783 0.299008 0.648766
vn 0.712265 0.551606 -0.434062
vn 0.741663 0.194662 0.641905
vn 0.699783 0.299008 0.648766
vn 0.837427 0.539253 -0.089007
vn 0.066047 0.470937 -0.879691
vn 0.712265 0.551606 -0.434062
vn -0.569804 0.417432 -0.707865
vn -0.072067 0.785882 -0.614163
vn -0.224033 0.402474 -0.887595
vn 0.289766 -0.065050 0.954884
vn 0.212399 0.832467 0.511748
vn -0.460708 0.767819 0.445200
vn 0.656682 0.752090 0.055942
vn 0.212399 0.832467 0.511748
vn 0.836706 0.034080 0.546590
vn 0.212399 0.832467 0.511748
vn 0.289766 -0.065050 0.954884
vn 0.836706 0.034080 0.546590
vn 0.712265 0.551606 -0.434062
vn 0.656682 0.752090 0.055942
vn 0.836706 0.034080 0.546590
vn -0.224033 0.402474 -0.887595
vn -0.072067 0.785882 -0.614163
vn 0.712265 0.551606 -0.434062
vn -0.759717 0.346210 -0.550426
vn -0.569804 0.417432 -0.707865
vn -0.347652 0.391667 -0.851901
vn -0.945456 0.080640 0.315609
vn -0.925628 -0.094813 0.366366
vn -0.569804 0.417432 -0.707865
vn -0.217341 -0.037215 0.975386
vn -0.925628 -0.094813 0.366366
vn -0.945456 0.080640 0.315609
vn 0.176770 0.130412 0.975574
vn 0.269128 -0.072619 0.960363
vn -0.217341 -0.037215 0.975386
vn 0.269128 -0.072619 0.960363
vn 0.176770 0.130412 0.975574
vn 0.780102 -0.044152 0.624093
vn 0.176770 0.130412 0.975574
vn 0.741663 0.194662 0.641905
vn 0.780102 -0.044152 0.624093
vn 0.712265 0.551606 -0.434062
vn 0.780102 -0.044152 0.624093
vn 0.741663 0.194662 0.641905
vn -0.224033 0.402474 -0.887595
vn 0.066047 0.470937 -0.879691
vn -0.347652 0.391667 -0.851901
vn -0.224033 0.402474 -0.887595
vn -0.347652 0.391667 -0.851901
vn -0.569804 0.417432 -0.707865
vn -0.913229 0.336525 0.229706
vn -0.925628 -0.094813 0.366366
vn -0.217341 -0.037215 0.975386
vn -0.460708 0.767819 0.445200
vn -0.217341 -0.037215 0.975386
vn 0.269128 -0.072619 0.960363
vn 0.836706 0.034080 0.546590
vn 0.289766 -0.065050 0.954884
vn 0.780102 -0.044152 0.624093
vn 0.289766 -0.065050 0.954884
vn 0.269128 -0.072619 0.960363
vn 0.780102 -0.044152 0.624093
vn 0.836706 0.034080 0.546590
vn 0.780102 -0.044152 0.624093
vn 0.712265 0.551606 -0.434062
vn 0.212399 0.832467 0.511748
vn 0.656682 0.752090 0.055942
vn -0.072067 0.785882 -0.614163
vn -0.333613 -0.167135 0.927776
vn -0.324512 -0.003820 0.945874
vn -0.562137 0.484810 0.670046
vn -0.032261 0.663490 -0.747489
vn -0.548171 0.780710 -0.300002
vn -0.734550 0.589212 -0.336550
vn 0.901712 0.125227 -0.413803
vn 0.823157 -0.435938 0.363827
vn 0.968374 0.042334 0.245886
vn 0.901712 0.125227 -0.413803
vn -0.060711 0.583682 -0.809710
vn 0.341077 0.606843 -0.717920
vn -0.949987 -0.063108 0.305847
vn -0.338768 -0.259674 0.904326
vn -0.268596 -0.357207 0.894572
vn 0.971235 0.214653 -0.103084
vn 0.799021 0.444679 -0.404754
vn 0.968374 0.042334 0.245886
vn -0.548171 0.780710 -0.300002
vn -0.515464 0.849697 -0.110961
vn -0.656738 0.734830 -0.169470
vn -0.656738 0.734830 -0.169470
vn -0.949987 -0.063108 0.305847
vn -0.454086 0.729157 -0.511992
vn -0.949987 -0.063108 0.305847
vn -0.815855 0.472561 0.333266
vn -0.324512 -0.003820 0.945874
vn 0.278386 -0.209056 0.937441
vn 0.325056 -0.445322 0.834282
vn -0.268596 -0.357207 0.894572
vn 0.844816 0.534676 0.020182
vn 0.103621 0.766765 -0.633509
vn 0.170572 0.717579 -0.675267
vn 0.103621 0.766765 -0.633509
vn -0.454086 0.729157 -0.511992
vn -0.325088 0.719920 -0.613215
vn -0.850490 0.260671 -0.456856
vn -0.759717 0.346210 -0.550426
vn -0.325088 0.719920 -0.613215
vn -0.884327 -0.301918 0.356106
vn -0.268596 -0.357207 0.894572
vn -0.347385 -0.066513 0.935361
vn -0.268596 -0.357207 0.894572
vn 0.180879 -0.037129 0.982804
vn 0.176770 0.130412 0.975574
vn 0.278386 -0.209056 0.937441
vn 0.332350 0.077630 0.939956
vn 0.665205 -0.353029 0.657931
vn 0.749844 0.098621 0.654223
vn 0.844816 0.534676 0.020182
vn 0.837427 0.539253 -0.089007
vn -0.884327 -0.301918 0.356106
vn -0.962569 -0.029703 0.269404
vn -0.759717 0.346210 -0.550426
vn -0.072067 0.785882 -0.614163
vn 0.656682 0.752090 0.055942
vn 0.712265 0.551606 -0.434062
vn -0.569804 0.417432 -0.707865
vn -0.759717 0.346210 -0.550426
vn -0.945456 0.080640 0.315609
vn -0.925628 -0.094813 0.366366
vn -0.913229 0.336525 0.229706
vn -0.569804 0.417432 -0.707865
vn 0.269128 -0.072619 0.960363
vn 0.289766 -0.065050 0.954884
vn -0.460708 0.767819 0.445200
vn 0.066047 0.470937 -0.879691
vn -0.224033 0.402474 -0.887595
vn 0.712265 0.551606 -0.434062
vn -0.336646 0.176229 0.924994
vn -0.562137 0.484810 0.670046
vn -0.535952 0.804171 0.257028
vn -0.337509 0.743518 -0.577294
vn -0.394052 0.815232 -0.424406
vn -0.032261 0.663490 -0.747489
vn 0.970765 0.229965 -0.068788
vn 0.971235 0.214653 -0.103084
vn 0.893639 -0.081825 0.441264
vn 0.844816 0.534676 0.020182
vn 0.749844 0.098621 0.654223
vn 0.659162 -0.350077 0.665546
vn -0.515464 0.849697 -0.110961
vn -0.562137 0.484810 0.670046
vn -0.815855 0.472561 0.333266
vn -0.759717 0.346210 -0.550426
vn -0.962569 -0.029703 0.269404
vn -0.945456 0.080640 0.315609
vn 0.837427 0.539253 -0.089007
vn 0.170572 0.717579 -0.675267
vn 0.066047 0.470937 -0.879691
vn -0.569804 0.417432 -0.707865
vn -0.913229 0.336525 0.229706
vn -0.072067 0.785882 -0.614163
vn 0.801457 -0.112470 0.587382
vn 0.665205 -0.353029 0.657931
vn 0.332350 0.077630 0.939956
vn -0.454086 0.729157 -0.511992
vn -0.060711 0.583682 -0.809710
vn 0.545729 0.516119 -0.660152
vn -0.325088 0.719920 -0.613215
vn -0.759717 0.346210 -0.550426
vn -0.347652 0.391667 -0.851901
vn -0.217341 -0.037215 0.975386
vn -0.460708 0.767819 0.445200
vn -0.913229 0.336525 0.229706
s off
g polySurface455 tree_FBXASC032CopyFBXASC032Copy_ncl1_1
usemtl rock_low_05FBXASC032CopySG
f 1/1/1 2/2/2 3/3/3
f 4/4/4 5/5/5 6/6/6
f 5/5/7 7/7/8 6/6/9
f 8/8/10 9/9/11 10/10/12
f 9/9/13 11/11/14 10/10/15
f 11/11/16 9/9/17 12/12/18
f 9/9/19 13/13/20 12/12/21
f 14/14/22 10/10/23 12/12/24
f 15/15/25 16/16/26 17/17/27
f 18/18/28 19/19/29 20/20/30
f 5/5/31 4/4/32 21/21/33
f 12/12/34 22/22/35 23/23/36
f 17/17/37 24/24/38 25/25/39
f 26/26/40 27/27/41 28/28/42
f 29/29/43 30/30/44 31/31/45
f 32/32/46 33/33/47 34/34/48
f 35/35/49 36/36/50 37/37/51
f 21/21/52 38/38/53 39/39/54
f 23/23/55 29/29/56 4/4/57
f 25/25/58 34/34/59 40/40/60
f 41/41/61 24/24/62 42/42/63
f 24/24/64 43/43/65 42/42/66
f 44/44/67 45/45/68 46/46/69
f 45/45/70 47/47/71 46/46/72
f 26/26/73 38/38/74 31/31/75
f 32/32/76 34/34/77 37/37/78
f 27/27/79 26/26/80 30/30/81
f 48/48/82 49/49/83 8/8/84
f 49/49/85 9/9/86 8/8/87
f 50/50/88 13/13/89 49/49/90
f 13/13/91 9/9/92 49/49/93
f 51/51/94 5/5/95 39/39/96
f 13/13/97 40/40/98 22/22/99
f 27/27/100 47/47/101 28/28/102
f 52/52/103 45/45/104 39/39/105
f 29/29/106 23/23/107 40/40/108
f 23/23/109 22/22/110 40/40/111
f 26/26/112 28/28/113 38/38/114
f 28/28/115 52/52/116 38/38/117
f 53/53/118 54/54/119 55/55/120
f 12/12/121 4/4/122 14/14/123
f 4/4/124 6/6/125 14/14/126
f 16/16/127 56/56/128 24/24/129
f 4/4/130 12/12/131 23/23/132
f 24/24/133 56/56/134 43/43/135
f 30/30/136 26/26/137 31/31/138
f 21/21/139 4/4/140 38/38/141
f 4/4/142 57/57/143 38/38/144
f 41/41/145 34/34/146 24/24/147
f 57/57/148 29/29/149 31/31/150
f 41/41/151 42/42/152 37/37/153
f 58/58/154 59/59/155 60/60/156
f 59/59/157 61/61/158 60/60/159
f 27/27/160 53/53/161 62/62/162
f 30/30/163 54/54/164 53/53/165
f 29/29/166 33/33/167 54/54/168
f 32/32/169 63/63/170 64/64/171
f 37/37/172 65/65/173 63/63/174
f 39/39/175 45/45/176 51/51/177
f 45/45/178 19/19/179 51/51/180
f 33/33/181 29/29/182 34/34/183
f 28/28/184 47/47/185 52/52/186
f 47/47/187 45/45/188 52/52/189
f 48/48/190 66/66/191 49/49/192
f 66/66/193 17/17/194 49/49/195
f 17/17/196 50/50/197 49/49/198
f 50/50/199 25/25/200 40/40/201
f 60/60/202 61/61/203 47/47/204
f 61/61/205 46/46/206 47/47/207
f 67/67/208 3/3/209 2/2/210
f 60/60/211 62/62/212 58/58/213
f 33/33/214 32/32/215 68/68/216
f 53/53/217 55/55/218 69/69/219
f 63/63/220 70/70/221 64/64/222
f 70/70/223 71/71/224 64/64/225
f 63/63/226 65/65/227 70/70/228
f 59/59/229 58/58/230 72/72/231
f 62/62/232 73/73/233 58/58/234
f 73/73/235 72/72/236 58/58/237
f 62/62/238 69/69/239 73/73/240
f 74/74/241 2/2/242 75/75/243
f 76/76/244 77/77/245 3/3/246
f 78/78/247 79/79/248 80/80/249
f 79/79/250 81/81/251 80/80/252
f 73/73/253 78/78/254 80/80/255
f 75/75/256 2/2/257 73/73/258
f 68/68/259 74/74/260 55/55/261
f 71/71/262 82/82/263 74/74/264
f 70/70/265 82/82/266 71/71/267
f 65/65/268 83/83/269 70/70/270
f 84/84/271 59/59/272 85/85/273
f 59/59/274 72/72/275 85/85/276
f 73/73/277 85/85/278 72/72/279
f 75/75/280 69/69/281 55/55/282
f 75/75/283 55/55/284 74/74/285
f 67/67/286 82/82/287 70/70/288
f 3/3/289 70/70/290 83/83/291
f 80/80/292 81/81/293 85/85/294
f 81/81/295 84/84/296 85/85/297
f 80/80/298 85/85/299 73/73/300
f 79/79/301 78/78/302 2/2/303
f 16/16/304 24/24/305 17/17/306
f 12/12/307 13/13/308 22/22/309
f 38/38/310 52/52/311 39/39/312
f 38/38/313 57/57/314 31/31/315
f 34/34/316 41/41/317 37/37/318
f 5/5/319 21/21/320 39/39/321
f 13/13/322 50/50/323 40/40/324
f 40/40/325 34/34/326 29/29/327
f 34/34/328 25/25/329 24/24/330
f 42/42/331 35/35/332 37/37/333
f 27/27/334 30/30/335 53/53/336
f 30/30/337 29/29/338 54/54/339
f 33/33/340 68/68/341 54/54/342
f 32/32/343 37/37/344 63/63/345
f 37/37/346 36/36/347 65/65/348
f 44/44/349 20/20/350 45/45/351
f 60/60/352 27/27/353 62/62/354
f 32/32/355 64/64/356 68/68/357
f 2/2/358 78/78/359 73/73/360
f 74/74/361 68/68/362 71/71/363
f 82/82/364 67/67/365 74/74/366
f 83/83/367 76/76/368 3/3/369
f 69/69/370 75/75/371 73/73/372
f 15/15/373 17/17/374 66/66/375
f 10/10/376 11/11/377 12/12/378
f 7/7/379 5/5/380 51/51/381
f 27/27/382 60/60/383 47/47/384
f 50/50/385 17/17/386 25/25/387
f 68/68/388 64/64/389 71/71/390
f 62/62/391 53/53/392 69/69/393
f 74/74/394 67/67/395 2/2/396
f 19/19/397 45/45/398 20/20/399
f 29/29/400 57/57/401 4/4/402
f 54/54/403 68/68/404 55/55/405
f 70/70/406 3/3/407 67/67/408
